<svg width="300" height="300" viewBox="0 0 300 300" fill="none" xmlns="http://www.w3.org/2000/svg">
<path d="M139.744 282.749C140.114 283.51 140.643 284.1 141.333 284.521C142.022 284.942 142.839 285.174 143.783 285.218C144.827 285.267 145.765 285.075 146.596 284.641C147.427 284.207 148.091 283.562 148.587 282.707C149.083 281.852 149.358 280.852 149.411 279.706C149.466 278.526 149.287 277.488 148.873 276.59C148.442 275.692 147.825 274.987 147.022 274.477C146.218 273.967 145.269 273.686 144.173 273.634C142.825 273.571 141.705 273.874 140.812 274.541C139.919 275.226 139.307 276.202 138.978 277.47L145.044 277.754L144.918 280.458L135.363 280.011L135.507 276.928C135.801 275.708 136.36 274.595 137.184 273.586C138.008 272.578 139.05 271.782 140.31 271.199C141.553 270.632 142.932 270.385 144.449 270.456C146.151 270.535 147.675 270.986 149.021 271.809C150.35 272.648 151.378 273.769 152.106 275.171C152.817 276.572 153.132 278.14 153.051 279.876C152.97 281.612 152.51 283.144 151.671 284.473C150.814 285.817 149.685 286.837 148.285 287.531C146.867 288.242 145.315 288.558 143.63 288.479C141.641 288.386 139.937 287.816 138.517 286.771C137.096 285.741 136.148 284.338 135.674 282.559L139.744 282.749Z" fill="#292929"/>
<path d="M113.484 272.923C113.602 272.431 113.741 271.996 113.9 271.618L123.868 274.001C124.021 272.997 123.861 272.144 123.388 271.441C122.914 270.738 122.235 270.28 121.349 270.068C120.069 269.762 119.027 270.094 118.222 271.064L114.506 270.175C115.214 268.957 116.228 268.055 117.548 267.468C118.864 266.898 120.334 266.808 121.958 267.196C123.271 267.51 124.383 268.08 125.296 268.905C126.188 269.743 126.802 270.765 127.137 271.973C127.456 273.177 127.449 274.476 127.115 275.87C126.777 277.281 126.193 278.451 125.364 279.38C124.534 280.309 123.534 280.937 122.363 281.264C121.192 281.591 119.934 281.594 118.588 281.272C117.292 280.962 116.202 280.407 115.318 279.606C114.418 278.801 113.813 277.815 113.503 276.648C113.172 275.493 113.166 274.252 113.484 272.923ZM116.817 274.761C116.621 275.65 116.772 276.432 117.27 277.107C117.764 277.797 118.462 278.25 119.364 278.466C120.217 278.67 121.002 278.58 121.718 278.196C122.414 277.825 122.938 277.196 123.289 276.308L116.817 274.761Z" fill="#292929"/>
<path d="M99.942 271.975L102.487 265.689C102.664 265.252 102.692 264.89 102.571 264.605C102.428 264.328 102.106 264.089 101.606 263.887L100.081 263.27L101.202 260.502L103.266 261.337C106.034 262.456 106.874 264.361 105.785 267.05L103.25 273.313L104.798 273.939L103.706 276.636L102.158 276.01L100.857 279.224L97.5491 277.886L98.85 274.673L95.941 273.497L97.0331 270.799L99.942 271.975Z" fill="#292929"/>
<path d="M73.6923 263.111C74.2097 263.46 74.5345 263.913 74.6669 264.471C74.7758 265.033 74.665 265.558 74.3345 266.047C74.0039 266.537 73.5622 266.829 73.0094 266.924C72.4332 267.023 71.8863 266.898 71.369 266.549C70.8516 266.2 70.5384 265.745 70.4295 265.183C70.2971 264.625 70.3962 264.102 70.7268 263.613C71.0573 263.123 71.5107 262.829 72.087 262.73C72.6398 262.634 73.1749 262.762 73.6923 263.111ZM73.18 260.75L81.0283 249.134L83.9648 251.116L76.1165 262.732L73.18 260.75Z" fill="#292929"/>
<path d="M58.569 249.324C57.3297 248.205 56.6847 246.906 56.634 245.428C56.572 243.962 57.1747 242.529 58.4421 241.128L63.9587 235.028L66.5875 237.403L61.3934 243.146C60.6465 243.972 60.2816 244.79 60.2987 245.601C60.3044 246.425 60.664 247.159 61.3775 247.803C62.1035 248.459 62.8831 248.754 63.7161 248.688C64.5252 248.624 65.3032 248.178 66.0501 247.353L71.2442 241.61L73.8729 243.985L64.4693 254.382L61.8405 252.007L63.0117 250.712C62.2538 250.846 61.4926 250.794 60.728 250.558C59.9396 250.324 59.2199 249.912 58.569 249.324Z" fill="#292929"/>
<path d="M39.8099 222.536L45.454 218.777C45.8471 218.515 46.0741 218.232 46.135 217.928C46.1724 217.619 46.0414 217.24 45.7419 216.791L44.8293 215.423L47.3144 213.767L48.5499 215.62C50.2065 218.104 49.8274 220.15 47.4125 221.759L41.7895 225.504L42.7161 226.894L40.2942 228.507L39.3676 227.118L36.4823 229.039L34.5028 226.071L37.388 224.149L35.6471 221.539L38.069 219.926L39.8099 222.536Z" fill="#292929"/>
<path d="M40.6896 200.969C41.2573 202.193 41.5005 203.419 41.4189 204.646C41.3221 205.881 40.9075 207.012 40.1751 208.039C39.4356 209.051 38.4153 209.858 37.1142 210.461C35.8131 211.064 34.5337 211.312 33.2762 211.207C32.0115 211.086 30.8806 210.652 29.8836 209.906C28.8712 209.166 28.0811 208.184 27.5133 206.96C26.9456 205.736 26.7065 204.499 26.7963 203.249C26.8707 202.006 27.2741 200.871 28.0065 199.844C28.7318 198.801 29.745 197.979 31.0461 197.376C32.3472 196.773 33.6337 196.54 34.9054 196.676C36.1701 196.797 37.3122 197.234 38.3316 197.989C39.3287 198.736 40.1147 199.729 40.6896 200.969ZM37.8883 202.266C37.6186 201.685 37.2289 201.205 36.7192 200.828C36.187 200.442 35.5668 200.227 34.8585 200.184C34.1502 200.14 33.3904 200.306 32.5791 200.682C31.3698 201.242 30.5928 201.992 30.2479 202.933C29.8807 203.865 29.91 204.79 30.3359 205.709C30.7617 206.627 31.4492 207.247 32.3984 207.57C33.3252 207.884 34.3932 207.761 35.6025 207.201C36.8118 206.641 37.6071 205.91 37.9885 205.008C38.3476 204.098 38.3142 203.184 37.8883 202.266Z" fill="#292929"/>
<path d="M17.7598 177.429L31.3275 173.902L32.2262 177.355L30.5118 177.801C31.2143 178.089 31.8305 178.547 32.3603 179.176C32.8695 179.793 33.2325 180.518 33.4492 181.351C33.7254 182.412 33.7493 183.408 33.5209 184.339C33.2762 185.274 32.7828 186.091 32.0407 186.789C31.278 187.476 30.2925 187.976 29.0843 188.29L21.1249 190.359L20.2327 186.93L27.7023 184.989C28.7798 184.709 29.5424 184.223 29.99 183.531C30.4212 182.844 30.5157 182.035 30.2735 181.104C30.0271 180.158 29.548 179.489 28.8364 179.099C28.1084 178.713 27.2056 178.66 26.128 178.94L18.6584 180.882L17.7598 177.429Z" fill="#292929"/>
<path d="M23.0418 166.976C21.5955 167.091 20.3109 166.896 19.1879 166.393C18.048 165.891 17.1424 165.142 16.471 164.146C15.7828 163.152 15.3853 161.982 15.2785 160.636C15.1409 158.904 15.4646 157.44 16.2496 156.244C17.0164 155.033 18.1665 154.171 19.6997 153.661L20.0022 157.47C19.4129 157.719 18.9694 158.101 18.6718 158.616C18.356 159.115 18.2262 159.717 18.2823 160.424C18.3624 161.433 18.7958 162.202 19.5825 162.732C20.3523 163.263 21.41 163.475 22.7553 163.369C24.0838 163.263 25.0947 162.887 25.7879 162.24C26.4643 161.594 26.7624 160.766 26.6822 159.757C26.5687 158.328 25.8556 157.445 24.5428 157.109L24.2403 153.3C25.7845 153.567 27.0477 154.237 28.0298 155.31C29.0119 156.383 29.571 157.777 29.7073 159.492C29.8141 160.837 29.6146 162.055 29.1088 163.144C28.5862 164.235 27.8102 165.117 26.7807 165.791C25.7343 166.466 24.488 166.861 23.0418 166.976Z" fill="#292929"/>
<path d="M15.6176 135.644C15.7196 134.586 16.0453 133.668 16.5948 132.891C17.1276 132.112 17.8691 131.539 18.8196 131.173C19.7549 130.789 20.8523 130.657 22.1117 130.778L30.2977 131.566L29.9578 135.093L22.2503 134.351C21.142 134.244 20.2673 134.439 19.6262 134.937C18.9682 135.433 18.5931 136.159 18.5008 137.116C18.4069 138.09 18.6347 138.892 19.1842 139.521C19.7185 140.132 20.5398 140.49 21.648 140.597L29.3555 141.339L29.0156 144.866L10.3765 143.071L10.7165 139.544L17.1394 140.163C16.5786 139.651 16.1667 139.002 15.9037 138.214C15.6239 137.424 15.5286 136.567 15.6176 135.644Z" fill="#292929"/>
<path d="M28.8844 98.5731L31.678 99.6275L27.8855 109.664L25.092 108.61L28.8844 98.5731Z" fill="#292929"/>
<path d="M45.4892 67.1221C44.6517 67.0046 43.8658 67.1145 43.1316 67.4518C42.3974 67.7892 41.7485 68.3369 41.1849 69.0951C40.561 69.9345 40.1971 70.8199 40.0933 71.7514C39.9895 72.6828 40.1539 73.5928 40.5865 74.4812C41.0191 75.3697 41.6959 76.1558 42.6169 76.8396C43.565 77.5436 44.5271 77.9742 45.5032 78.1316C46.4893 78.2754 47.4185 78.1564 48.2909 77.7746C49.1633 77.3927 49.9266 76.7618 50.5807 75.8818C51.3858 74.7987 51.7606 73.7007 51.705 72.5878C51.6358 71.4649 51.167 70.4131 50.2986 69.4322L46.6757 74.3062L44.5017 72.6922L50.208 65.0156L52.6866 66.8559C53.5345 67.7795 54.1468 68.8645 54.5237 70.1107C54.9005 71.357 54.9789 72.6654 54.759 74.0358C54.5355 75.3827 53.9709 76.6654 53.0652 77.8839C52.0487 79.2513 50.8231 80.2639 49.3884 80.9215C47.9502 81.5556 46.446 81.7835 44.8759 81.6053C43.3158 81.4136 41.8382 80.7998 40.4431 79.764C39.048 78.7283 38.0334 77.4917 37.3992 76.0544C36.7615 74.5935 36.5455 73.0884 36.7512 71.5392C36.9534 69.9665 37.5577 68.5031 38.564 67.1492C39.7516 65.5517 41.1759 64.4555 42.8371 63.8609C44.4847 63.2562 46.1789 63.2534 47.9196 63.8524L45.4892 67.1221Z" fill="#292929"/>
<path d="M68.3056 50.8328C68.6484 51.2052 68.932 51.5631 69.1566 51.9066L61.6127 58.8433C62.3603 59.5308 63.1581 59.8744 64.006 59.8739C64.854 59.8734 65.6132 59.5648 66.2838 58.9482C67.2524 58.0576 67.5588 57.0081 67.2031 55.7998L70.0158 53.2135C70.6318 54.4805 70.8147 55.8248 70.5644 57.2467C70.3027 58.6561 69.5571 59.926 68.3278 61.0564C67.3343 61.9699 66.2403 62.5748 65.0456 62.8712C63.852 63.1437 62.6603 63.0822 61.4705 62.6865C60.2932 62.2794 59.219 61.5484 58.2478 60.4934C57.2652 59.4261 56.6199 58.2892 56.3118 57.0829C56.0038 55.8765 56.041 54.6964 56.4234 53.5427C56.8058 52.389 57.5062 51.3439 58.5245 50.4076C59.5055 49.5056 60.5752 48.9116 61.7336 48.6256C62.9044 48.3283 64.0608 48.3764 65.2028 48.7701C66.3459 49.14 67.3801 49.8275 68.3056 50.8328ZM64.9192 52.5716C64.2898 51.9129 63.5563 51.6018 62.7188 51.6386C61.8699 51.6629 61.1039 51.9891 60.4209 52.6171C59.7752 53.2108 59.4116 53.9118 59.3302 54.72C59.2497 55.5044 59.4798 56.2898 60.0203 57.0762L64.9192 52.5716Z" fill="#292929"/>
<path d="M76.6509 40.1367L80.4489 45.7549C80.7135 46.1462 80.998 46.3714 81.3026 46.4303C81.6117 46.4659 81.99 46.3326 82.4374 46.0305L83.8005 45.1101L85.4728 47.5838L83.6273 48.8299C81.1527 50.5008 79.1028 50.1343 77.4778 47.7305L73.6939 42.1332L72.3098 43.0678L70.68 40.657L72.0642 39.7224L70.1226 36.8504L73.0796 34.8538L75.0211 37.7258L77.6216 35.97L79.2514 38.3808L76.6509 40.1367Z" fill="#292929"/>
<path d="M98.6626 23.3203C98.084 23.5544 97.5264 23.5708 96.9898 23.3694C96.4624 23.146 96.0879 22.7607 95.8662 22.2134C95.6445 21.6662 95.6485 21.1369 95.8781 20.6254C96.117 20.0919 96.5258 19.7082 97.1044 19.474C97.683 19.2399 98.2359 19.2345 98.7633 19.4579C99.2999 19.6593 99.6791 20.0336 99.9008 20.5809C100.122 21.1281 100.114 21.6684 99.8749 22.2019C99.6453 22.7134 99.2412 23.0862 98.6626 23.3203ZM100.908 24.2132L106.172 37.2061L102.888 38.5349L97.6243 25.5421L100.908 24.2132Z" fill="#292929"/>
<path d="M118.549 18.4768C120.169 18.0742 121.607 18.2644 122.863 19.0477C124.114 19.8145 124.967 21.1147 125.423 22.9483L127.409 30.929L123.971 31.7832L122.101 24.269C121.833 23.1885 121.357 22.4289 120.674 21.9902C119.987 21.5351 119.177 21.4234 118.244 21.6553C117.294 21.8912 116.615 22.373 116.205 23.1006C115.807 23.8078 115.742 24.7016 116.011 25.7821L117.88 33.2963L114.442 34.1504L111.058 20.5464L114.496 19.6922L114.918 21.3866C115.23 20.6833 115.697 20.0805 116.319 19.5782C116.954 19.0555 117.697 18.6883 118.549 18.4768Z" fill="#292929"/>
<path d="M151.259 17.8765L151.23 24.658C151.228 25.1304 151.336 25.4766 151.555 25.6969C151.79 25.9003 152.177 26.0032 152.717 26.0055L154.362 26.0126L154.349 28.9985L152.123 28.9889C149.137 28.9761 147.65 27.5189 147.662 24.6174L147.691 17.8611L146.021 17.854L146.033 14.944L147.703 14.9512L147.718 11.4845L151.286 11.4998L151.271 14.9665L154.409 14.98L154.396 17.89L151.259 17.8765Z" fill="#292929"/>
<path d="M168.67 30.6494C167.337 30.437 166.184 29.9543 165.211 29.2013C164.241 28.4316 163.534 27.4562 163.09 26.2751C162.663 25.0967 162.563 23.7995 162.789 22.3835C163.015 20.9675 163.522 19.7672 164.311 18.7827C165.117 17.8008 166.108 17.1046 167.284 16.6941C168.463 16.267 169.718 16.1597 171.051 16.3721C172.384 16.5845 173.544 17.0769 174.531 17.8492C175.521 18.6049 176.237 19.5733 176.681 20.7543C177.141 21.9381 177.258 23.2379 177.032 24.6539C176.806 26.0699 176.282 27.2675 175.46 28.2468C174.654 29.2287 173.653 29.9319 172.458 30.3564C171.282 30.7668 170.019 30.8645 168.67 30.6494ZM169.156 27.6009C169.789 27.7018 170.405 27.6461 171.002 27.4339C171.619 27.2076 172.144 26.8129 172.575 26.2496C173.007 25.6864 173.293 24.9633 173.434 24.0803C173.644 22.7643 173.455 21.7007 172.867 20.8895C172.298 20.0643 171.514 19.572 170.514 19.4127C169.515 19.2534 168.616 19.4774 167.819 20.0849C167.041 20.6783 166.547 21.6331 166.337 22.9491C166.127 24.2652 166.29 25.3331 166.825 26.153C167.38 26.9589 168.157 27.4415 169.156 27.6009Z" fill="#292929"/>
<path d="M201.008 24.7653L196.361 37.9913L192.995 36.8098L193.582 35.1386C192.951 35.5608 192.226 35.8161 191.409 35.9045C190.612 35.9826 189.808 35.8792 188.996 35.5944C187.962 35.2313 187.122 34.6952 186.477 33.9862C185.838 33.2612 185.435 32.396 185.27 31.3904C185.126 30.3746 185.261 29.2778 185.675 28.1L188.401 20.3411L191.744 21.5141L189.186 28.7956C188.817 29.846 188.794 30.7499 189.118 31.5072C189.448 32.2486 190.066 32.7785 190.973 33.0969C191.897 33.4209 192.719 33.3966 193.44 33.0239C194.166 32.6352 194.714 31.9157 195.083 30.8653L197.642 23.5838L201.008 24.7653Z" fill="#292929"/>
<path d="M206.743 34.9837C207.455 33.7198 208.334 32.7624 209.379 32.1114C210.431 31.4458 211.559 31.1123 212.76 31.111C213.969 31.095 215.162 31.418 216.338 32.08C217.852 32.9323 218.887 34.0178 219.441 35.3364C220.018 36.6486 220.091 38.0833 219.659 39.6404L216.329 37.7661C216.451 37.1377 216.381 36.5566 216.12 36.0227C215.883 35.4823 215.455 35.0384 214.838 34.6908C213.956 34.1943 213.075 34.1246 212.196 34.4816C211.326 34.8239 210.559 35.5829 209.896 36.7586C209.242 37.9197 208.99 38.9683 209.14 39.9046C209.298 40.8261 209.819 41.5352 210.701 42.0317C211.95 42.735 213.081 42.6358 214.093 41.7341L217.422 43.6084C216.339 44.7407 215.078 45.415 213.639 45.6312C212.2 45.8474 210.731 45.5335 209.232 44.6894C208.056 44.0274 207.157 43.1827 206.535 42.1553C205.922 41.1132 205.623 39.977 205.639 38.7468C205.663 37.5019 206.031 36.2475 206.743 34.9837Z" fill="#292929"/>
<path d="M236.899 46.3086C237.72 46.9834 238.3 47.7656 238.638 48.6552C238.988 49.5317 239.049 50.4663 238.822 51.459C238.619 52.4493 238.115 53.4329 237.311 54.4099L232.086 60.7604L229.349 58.5111L234.269 52.5319C234.976 51.6721 235.303 50.8375 235.248 50.0281C235.203 49.2057 234.81 48.4893 234.067 47.8787C233.311 47.2575 232.519 46.9993 231.69 47.104C230.884 47.2065 230.128 47.6876 229.421 48.5474L224.501 54.5266L221.764 52.2773L233.662 37.8177L236.399 40.0671L232.299 45.0497C233.036 44.87 233.806 44.8908 234.607 45.1123C235.418 45.3207 236.182 45.7195 236.899 46.3086Z" fill="#292929"/>
<path d="M260.275 77.9995L257.84 79.7278L251.625 70.9822L254.06 69.2539L260.275 77.9995Z" fill="#292929"/>
<path d="M277.124 109.325C277.689 108.696 278.036 107.983 278.166 107.185C278.296 106.388 278.203 105.544 277.888 104.654C277.539 103.667 277.007 102.871 276.292 102.265C275.577 101.659 274.729 101.287 273.75 101.15C272.771 101.013 271.741 101.135 270.66 101.517C269.546 101.911 268.652 102.468 267.976 103.19C267.307 103.927 266.887 104.764 266.717 105.701C266.547 106.637 266.645 107.623 267.011 108.656C267.461 109.929 268.163 110.852 269.118 111.428C270.089 111.997 271.224 112.196 272.523 112.023L270.498 106.298L273.051 105.396L276.24 114.414L273.329 115.442C272.089 115.629 270.847 115.531 269.602 115.148C268.357 114.765 267.227 114.099 266.212 113.152C265.218 112.215 264.468 111.03 263.962 109.599C263.394 107.993 263.238 106.411 263.492 104.854C263.768 103.307 264.418 101.933 265.443 100.73C266.472 99.5433 267.806 98.6607 269.445 98.082C271.083 97.5033 272.676 97.3522 274.223 97.6288C275.792 97.9156 277.162 98.5767 278.333 99.6122C279.526 100.658 280.404 101.976 280.966 103.566C281.63 105.443 281.745 107.236 281.312 108.946C280.894 110.65 279.951 112.056 278.482 113.165L277.124 109.325Z" fill="#292929"/>
<path d="M277.917 137.339C277.417 137.415 276.962 137.451 276.551 137.445L275.003 127.315C274.015 127.551 273.284 128.021 272.812 128.724C272.339 129.428 272.172 130.23 272.309 131.13C272.508 132.431 273.208 133.271 274.41 133.651L274.987 137.428C273.592 137.232 272.374 136.633 271.334 135.631C270.31 134.627 269.672 133.3 269.419 131.649C269.215 130.315 269.323 129.069 269.744 127.913C270.184 126.771 270.9 125.817 271.892 125.051C272.887 124.302 274.093 123.819 275.51 123.602C276.944 123.383 278.248 123.483 279.421 123.901C280.594 124.319 281.553 125.009 282.297 125.97C283.042 126.932 283.518 128.096 283.727 129.464C283.929 130.781 283.825 132 283.416 133.12C283.01 134.258 282.325 135.19 281.361 135.917C280.416 136.659 279.268 137.133 277.917 137.339ZM278.364 133.559C279.262 133.405 279.929 132.97 280.366 132.255C280.819 131.538 280.976 130.72 280.835 129.803C280.703 128.936 280.324 128.243 279.698 127.724C279.092 127.219 278.312 126.971 277.358 126.981L278.364 133.559Z" fill="#292929"/>
<path d="M282.14 150.228L275.358 150.242C274.886 150.243 274.54 150.353 274.321 150.573C274.119 150.81 274.019 151.198 274.02 151.738L274.023 153.382L271.037 153.388L271.033 151.162C271.027 148.176 272.475 146.68 275.376 146.674L282.133 146.66L282.129 144.99L285.039 144.984L285.043 146.655L288.509 146.648L288.516 150.215L285.05 150.222L285.056 153.36L282.146 153.366L282.14 150.228Z" fill="#292929"/>
<path d="M283.814 177.868C283.943 177.257 284.24 176.785 284.707 176.452C285.187 176.14 285.715 176.044 286.293 176.166C286.871 176.287 287.308 176.586 287.604 177.062C287.913 177.558 288.004 178.111 287.875 178.722C287.746 179.333 287.442 179.795 286.963 180.108C286.496 180.44 285.974 180.546 285.396 180.424C284.818 180.303 284.375 179.994 284.065 179.498C283.769 179.022 283.685 178.479 283.814 177.868ZM281.82 179.233L268.101 176.347L268.832 172.88L282.55 175.766L281.82 179.233Z" fill="#292929"/>
<path d="M276.735 197.065C276.165 198.635 275.204 199.722 273.853 200.326C272.519 200.936 270.963 200.919 269.187 200.274L261.457 197.467L262.668 194.138L269.946 196.781C270.992 197.161 271.888 197.19 272.633 196.868C273.395 196.552 273.939 195.942 274.268 195.039C274.602 194.119 274.582 193.286 274.207 192.54C273.842 191.815 273.137 191.263 272.09 190.883L264.812 188.24L266.022 184.911L279.199 189.695L277.989 193.025L276.348 192.429C276.757 193.08 276.996 193.804 277.066 194.601C277.145 195.419 277.035 196.241 276.735 197.065Z" fill="#292929"/>
<path d="M258.976 224.524L253.365 220.716C252.974 220.451 252.626 220.347 252.321 220.406C252.021 220.487 251.719 220.752 251.416 221.198L250.492 222.559L248.021 220.882L249.272 219.04C250.95 216.57 252.989 216.15 255.391 217.779L260.981 221.572L261.92 220.191L264.328 221.825L263.389 223.206L266.258 225.153L264.253 228.104L261.384 226.158L259.621 228.753L257.213 227.119L258.976 224.524Z" fill="#292929"/>
<path d="M238.653 231.835C239.574 230.848 240.618 230.161 241.787 229.774C242.968 229.398 244.172 229.356 245.4 229.647C246.617 229.95 247.749 230.591 248.799 231.568C249.848 232.546 250.561 233.636 250.937 234.84C251.302 236.056 251.327 237.267 251.011 238.471C250.707 239.687 250.095 240.788 249.175 241.775C248.254 242.762 247.198 243.449 246.006 243.837C244.826 244.237 243.622 244.291 242.394 244C241.154 243.721 240.01 243.093 238.961 242.116C237.911 241.138 237.21 240.035 236.856 238.807C236.491 237.59 236.466 236.368 236.782 235.14C237.097 233.936 237.721 232.834 238.653 231.835ZM240.912 233.939C240.475 234.408 240.178 234.949 240.02 235.563C239.863 236.201 239.898 236.856 240.125 237.529C240.351 238.201 240.792 238.842 241.446 239.451C242.421 240.359 243.409 240.796 244.411 240.761C245.414 240.75 246.26 240.374 246.951 239.634C247.641 238.894 247.957 238.023 247.898 237.023C247.839 236.047 247.323 235.104 246.348 234.196C245.373 233.287 244.395 232.826 243.416 232.813C242.437 232.824 241.603 233.199 240.912 233.939Z" fill="#292929"/>
<path d="M225.484 261.93L217.098 250.696L219.959 248.564L221.018 249.983C221.02 249.224 221.212 248.481 221.596 247.754C221.975 247.05 222.51 246.441 223.2 245.926C224.079 245.271 224.993 244.874 225.941 244.734C226.9 244.609 227.843 244.758 228.77 245.182C229.694 245.63 230.529 246.354 231.276 247.354L236.195 253.944L233.355 256.062L228.738 249.877C228.072 248.985 227.335 248.462 226.525 248.308C225.725 248.168 224.94 248.385 224.169 248.96C223.385 249.544 222.946 250.24 222.853 251.046C222.77 251.865 223.062 252.721 223.728 253.613L228.344 259.798L225.484 261.93Z" fill="#292929"/>
<path d="M213.8 260.979C214.451 262.275 214.756 263.538 214.713 264.768C214.678 266.012 214.326 267.133 213.657 268.13C212.995 269.142 212.061 269.951 210.855 270.557C209.302 271.337 207.824 271.588 206.42 271.312C205.008 271.058 203.777 270.317 202.725 269.09L206.14 267.375C206.593 267.827 207.115 268.094 207.703 268.175C208.285 268.28 208.892 268.173 209.525 267.855C210.429 267.401 210.979 266.71 211.173 265.782C211.375 264.868 211.172 263.809 210.566 262.603C209.967 261.413 209.237 260.618 208.376 260.22C207.523 259.837 206.644 259.873 205.739 260.327C204.458 260.971 203.909 261.963 204.093 263.306L200.679 265.021C200.343 263.49 200.487 262.068 201.111 260.754C201.734 259.441 202.815 258.398 204.353 257.625C205.559 257.02 206.761 256.746 207.961 256.804C209.169 256.877 210.279 257.264 211.292 257.963C212.312 258.678 213.148 259.683 213.8 260.979Z" fill="#292929"/>
<path d="M187.567 279.662C186.548 279.966 185.575 280.01 184.648 279.794C183.725 279.595 182.916 279.123 182.218 278.381C181.509 277.66 180.974 276.693 180.611 275.481L178.255 267.602L181.649 266.588L183.868 274.006C184.187 275.073 184.698 275.809 185.4 276.216C186.108 276.638 186.922 276.712 187.843 276.437C188.781 276.157 189.437 275.644 189.813 274.898C190.177 274.173 190.2 273.277 189.881 272.21L187.662 264.792L191.057 263.778L196.422 281.718L193.027 282.732L191.179 276.55C190.916 277.262 190.47 277.888 189.839 278.429C189.213 278.985 188.456 279.396 187.567 279.662Z" fill="#292929"/>
<path d="M160.786 281.354L160.71 278.369L171.436 278.097L171.512 281.081L160.786 281.354Z" fill="#292929"/>
</svg>
