<svg width="170" height="170" viewBox="0 0 170 170" fill="none" xmlns="http://www.w3.org/2000/svg">
<path d="M81.6141 140.911C78.2515 140.786 74.889 140.413 71.651 139.665V87.7332L42.0111 104.919C45.1245 111.395 49.6079 117 55.2121 121.358L48.1134 128.457C35.5351 118.12 27.4402 102.429 27.4402 84.9934C27.4402 69.0525 34.1652 54.6062 44.7509 44.3941L51.8496 51.4927C43.0074 59.8367 37.4032 71.7924 37.4032 84.9934C37.4032 88.4804 37.7768 91.9675 38.6486 95.33L71.651 76.2757V30.1968C74.889 29.4495 78.2516 29.0759 81.6141 28.9514V140.911ZM93.3673 39.4125C91.7483 39.1635 90.0048 38.9144 88.3858 38.9144V28.9514C118.399 29.9477 142.56 54.6062 142.56 84.9934C142.56 115.256 118.399 139.914 88.3858 140.911V130.948C90.0048 130.948 91.7483 130.699 93.3673 130.45V39.4125ZM103.455 127.834C120.517 121.109 132.721 104.421 132.721 84.9933C132.721 65.4409 120.517 48.7529 103.455 42.0278V127.834ZM35.7701 35.7701C42.1931 29.347 49.5695 24.3739 57.8993 20.8507C66.5246 17.2025 75.5582 15.3784 85.0001 15.3784C94.4417 15.3784 103.475 17.2025 112.101 20.8507C120.43 24.3738 127.807 29.347 134.23 35.7701C140.653 42.1931 145.626 49.5695 149.149 57.8992C152.797 66.5246 154.621 75.5581 154.621 84.9999C154.621 94.4418 152.797 103.475 149.149 112.101C145.626 120.43 140.653 127.807 134.23 134.23C127.807 140.653 120.43 145.626 112.101 149.149C103.475 152.797 94.4417 154.621 85.0001 154.621C75.5582 154.621 66.5246 152.797 57.8993 149.149C49.5696 145.626 42.1932 140.653 35.7701 134.23C29.347 127.807 24.3739 120.43 20.8507 112.101C17.2025 103.475 15.3784 94.4418 15.3784 84.9999C15.3784 75.5581 17.2025 66.5245 20.8507 57.8992C24.3739 49.5695 29.347 42.1931 35.7701 35.7701ZM39.557 130.443C45.4876 136.374 52.2971 140.965 59.9855 144.217C67.944 147.583 76.2822 149.266 85.0001 149.266C93.7177 149.266 102.056 147.583 110.014 144.217C117.703 140.965 124.512 136.374 130.443 130.443C136.373 124.512 140.965 117.703 144.217 110.014C147.583 102.056 149.266 93.7178 149.266 84.9999C149.266 76.2821 147.583 67.944 144.217 59.9855C140.965 52.2972 136.373 45.4876 130.443 39.557C124.512 33.6263 117.703 29.035 110.014 25.7831C102.056 22.417 93.7177 20.7339 85.0001 20.7339C76.2822 20.7339 67.944 22.417 59.9855 25.7831C52.2971 29.035 45.4876 33.6263 39.557 39.557C33.6263 45.4876 29.0351 52.2971 25.7832 59.9855C22.417 67.944 20.7339 76.2821 20.7339 84.9999C20.7339 93.7178 22.417 102.056 25.7832 110.014C29.035 117.703 33.6263 124.512 39.557 130.443ZM25.4333 25.4333C33.205 17.6616 42.1302 11.6443 52.2089 7.38136C62.6453 2.96712 73.5757 0.76001 85 0.76001C96.4242 0.76001 107.355 2.96712 117.791 7.38136C127.869 11.6443 136.795 17.6616 144.567 25.4333C152.338 33.2051 158.356 42.1303 162.618 52.209C167.033 62.6454 169.24 73.5757 169.24 85C169.24 96.4242 167.033 107.355 162.618 117.791C158.356 127.87 152.338 136.795 144.567 144.567C136.795 152.338 127.869 158.356 117.791 162.618C107.355 167.033 96.4242 169.24 85 169.24C73.5757 169.24 62.6453 167.033 52.2089 162.618C42.1302 158.356 33.205 152.338 25.4333 144.567C17.6616 136.795 11.6442 127.87 7.38133 117.791C2.96712 107.355 0.76001 96.4242 0.76001 85C0.76001 73.5757 2.96712 62.6454 7.38133 52.209C11.6443 42.1303 17.6616 33.205 25.4333 25.4333V25.4333ZM30.0153 139.985C37.1913 147.161 45.4306 152.716 54.7333 156.651C64.3628 160.723 74.4517 162.76 85 162.76C95.5481 162.76 105.637 160.723 115.266 156.651C124.569 152.716 132.809 147.161 139.985 139.985C147.161 132.809 152.716 124.569 156.651 115.267C160.723 105.637 162.76 95.5481 162.76 85C162.76 74.4518 160.723 64.3629 156.651 54.7333C152.716 45.4306 147.161 37.1913 139.985 30.0154C132.809 22.8395 124.569 17.2841 115.266 13.3494C105.637 9.27649 95.5481 7.24 85 7.24C74.4517 7.24 64.3628 9.27648 54.7333 13.3494C45.4306 17.2842 37.1913 22.8395 30.0153 30.0154C22.8394 37.1913 17.2841 45.4306 13.3494 54.7333C9.27647 64.3628 7.24 74.4517 7.24 85C7.24 95.5481 9.27646 105.637 13.3494 115.267C17.2841 124.569 22.8394 132.809 30.0153 139.985Z" fill="#292929"/>
</svg>
