<svg width="75" height="75" viewBox="0 0 75 75" fill="none" xmlns="http://www.w3.org/2000/svg">
<path d="M36.5865 52.5831C35.6794 52.5495 34.7723 52.4487 33.8988 52.2471V38.2373L25.9027 42.8736C26.7427 44.6207 27.9521 46.1325 29.464 47.3084L27.549 49.2234C24.1557 46.4349 21.9719 42.2017 21.9719 37.4981C21.9719 33.1978 23.7861 29.3005 26.6419 26.5456L28.5569 28.4606C26.1715 30.7116 24.6597 33.9369 24.6597 37.4981C24.6597 38.4389 24.7604 39.3796 24.9956 40.2867L33.8988 35.1464V22.7156C34.7723 22.514 35.6794 22.4132 36.5865 22.3796V52.5831ZM39.7572 25.2017C39.3204 25.1345 38.8501 25.0673 38.4133 25.0673V22.3796C46.5102 22.6484 53.0279 29.3005 53.0279 37.4981C53.0279 45.6622 46.5102 52.3143 38.4133 52.5831V49.8954C38.8501 49.8954 39.3204 49.8282 39.7572 49.761V25.2017ZM42.4785 49.0554C47.0813 47.2412 50.3738 42.7392 50.3738 37.4981C50.3738 32.2234 47.0813 27.7215 42.4785 25.9073V49.0554ZM24.2191 24.2191C25.9518 22.4863 27.9418 21.1447 30.1889 20.1943C32.5158 19.2101 34.9528 18.718 37.5 18.718C40.047 18.718 42.484 19.2101 44.8109 20.1943C47.0581 21.1447 49.048 22.4863 50.7807 24.2191C52.5135 25.9518 53.8551 27.9418 54.8056 30.1889C55.7897 32.5158 56.2818 34.9528 56.2818 37.4999C56.2818 40.0471 55.7897 42.4841 54.8056 44.8109C53.8551 47.058 52.5135 49.048 50.7807 50.7808C49.048 52.5135 47.0581 53.8551 44.8109 54.8055C42.484 55.7897 40.047 56.2819 37.5 56.2819C34.9528 56.2819 32.5158 55.7897 30.1889 54.8055C27.9418 53.8551 25.9519 52.5135 24.2191 50.7808C22.4863 49.048 21.1447 47.058 20.1943 44.8109C19.2101 42.4841 18.718 40.0471 18.718 37.4999C18.718 34.9528 19.2101 32.5158 20.1943 30.1889C21.1447 27.9418 22.4863 25.9518 24.2191 24.2191ZM25.2407 49.7591C26.8406 51.3591 28.6776 52.5977 30.7517 53.475C32.8987 54.383 35.1481 54.837 37.5 54.837C39.8517 54.837 42.1011 54.383 44.2482 53.475C46.3222 52.5977 48.1592 51.3591 49.7592 49.7591C51.3591 48.1592 52.5976 46.3222 53.4749 44.2481C54.383 42.1011 54.8371 39.8517 54.8371 37.4999C54.8371 35.1481 54.383 32.8987 53.4749 30.7517C52.5976 28.6776 51.3591 26.8406 49.7592 25.2407C48.1592 23.6408 46.3222 22.4022 44.2482 21.5249C42.1011 20.6168 39.8517 20.1627 37.5 20.1627C35.1481 20.1627 32.8987 20.6168 30.7517 21.5249C28.6776 22.4022 26.8406 23.6408 25.2407 25.2407C23.6408 26.8406 22.4022 28.6776 21.5249 30.7517C20.6168 32.8987 20.1627 35.1481 20.1627 37.4999C20.1627 39.8517 20.6168 42.1011 21.5249 44.2481C22.4022 46.3222 23.6408 48.1592 25.2407 49.7591ZM21.4305 21.4305C23.5271 19.3339 25.9349 17.7106 28.6538 16.5606C31.4693 15.3698 34.418 14.7744 37.4999 14.7744C40.5819 14.7744 43.5306 15.3698 46.346 16.5606C49.0649 17.7106 51.4727 19.3339 53.5694 21.4305C55.6659 23.5271 57.2892 25.9349 58.4392 28.6538C59.6301 31.4693 60.2255 34.418 60.2255 37.4999C60.2255 40.5819 59.6301 43.5306 58.4392 46.346C57.2892 49.065 55.6659 51.4728 53.5694 53.5693C51.4727 55.6659 49.0649 57.2892 46.346 58.4392C43.5306 59.6301 40.5819 60.2255 37.4999 60.2255C34.418 60.2255 31.4693 59.6301 28.6538 58.4392C25.9349 57.2892 23.5271 55.6659 21.4305 53.5693C19.3339 51.4728 17.7106 49.065 16.5606 46.346C15.3698 43.5306 14.7744 40.5819 14.7744 37.4999C14.7744 34.418 15.3698 31.4693 16.5606 28.6538C17.7106 25.9349 19.3339 23.5271 21.4305 21.4305V21.4305ZM22.6666 52.3332C24.6025 54.2691 26.8252 55.7678 29.3348 56.8292C31.9326 57.928 34.6543 58.4774 37.4999 58.4774C40.3455 58.4774 43.0672 57.928 45.665 56.8292C48.1746 55.7678 50.3974 54.2691 52.3332 52.3332C54.2691 50.3974 55.7678 48.1746 56.8293 45.6651C57.928 43.0672 58.4774 40.3455 58.4774 37.4999C58.4774 34.6543 57.928 31.9326 56.8293 29.3348C55.7678 26.8252 54.2691 24.6025 52.3332 22.6666C50.3974 20.7308 48.1746 19.2321 45.665 18.1706C43.0672 17.0719 40.3455 16.5225 37.4999 16.5225C34.6543 16.5225 31.9326 17.0719 29.3348 18.1706C26.8252 19.2321 24.6025 20.7308 22.6666 22.6666C20.7308 24.6025 19.2321 26.8252 18.1706 29.3348C17.0719 31.9326 16.5225 34.6543 16.5225 37.4999C16.5225 40.3455 17.0719 43.0672 18.1706 45.6651C19.2321 48.1746 20.7308 50.3974 22.6666 52.3332Z" fill="#EEEEEE"/>
<path d="M6.43353 27.4626L5.68013 29.6361L11.532 31.6645L12.2854 29.491L10.279 28.7955L10.7426 27.458L12.749 28.1534L13.5024 25.9799L7.65056 23.9515L6.89716 26.125L8.9035 26.8205L8.43987 28.158L6.43353 27.4626Z" fill="#EEEEEE"/>
<path d="M15.0618 18.3325C15.5456 18.7191 15.6151 19.3409 15.2837 19.7556C14.9524 20.1703 14.3306 20.2398 13.8467 19.8532C13.3629 19.4666 13.2934 18.8448 13.6248 18.4301C13.9562 18.0154 14.5779 17.9459 15.0618 18.3325V18.3325ZM16.6082 16.3971C15.1912 15.2649 13.2015 15.4872 11.9313 17.077C10.661 18.6668 10.8833 20.6565 12.3003 21.7887C13.7174 22.9208 15.707 22.6985 16.9772 21.1087C18.2475 19.5189 18.0252 17.5292 16.6082 16.3971Z" fill="#EEEEEE"/>
<path d="M25.3907 14.1474L24.6165 10.6211L26.3149 13.6248L28.3174 12.4925L25.2689 7.10129L22.4193 8.71264L23.1885 12.1401L20.6479 9.71428L17.7982 11.3256L20.8467 16.7168L22.8492 15.5845L21.1507 12.5809L23.7734 15.0619L25.3907 14.1474Z" fill="#EEEEEE"/>
<path d="M32.8015 9.17904L35.0733 8.81781L34.7955 7.07022L32.5236 7.43145L32.4541 6.99455L34.9008 6.60553L34.6229 4.85794L29.9044 5.60819L30.8769 11.7248L35.7702 10.9467L35.4923 9.19913L32.8709 9.61594L32.8015 9.17904Z" fill="#EEEEEE"/>
<path d="M45.1345 10.2412L45.8687 7.87515L46.2067 7.98004C46.8405 8.1767 47.1027 8.67495 46.8536 9.47772C46.6045 10.2805 46.1063 10.5428 45.4725 10.3461L45.1345 10.2412ZM49.2197 10.2119C49.7834 8.39512 49.0313 6.81847 46.7836 6.12099C45.4315 5.70145 44.2223 5.41885 44.2223 5.41885L42.3868 11.334C42.3868 11.334 43.5436 11.7856 44.8956 12.2052C47.1434 12.9026 48.6559 12.0287 49.2197 10.2119Z" fill="#EEEEEE"/>
<path d="M53.8232 13.8866L55.7069 15.207L56.7226 13.758L54.8389 12.4376L55.0928 12.0753L57.1214 13.4973L58.1371 12.0483L54.2248 9.30591L50.6698 14.3775L54.7271 17.2214L55.7428 15.7724L53.5693 14.2489L53.8232 13.8866Z" fill="#EEEEEE"/>
<path d="M58.9584 16.9773C57.533 18.099 57.2961 20.0869 58.4452 21.547C59.4848 22.868 60.7421 22.8919 60.7421 22.8919L61.4065 21.0179C61.4065 21.0179 60.6958 20.9017 60.3128 20.415C59.9297 19.9283 60.0038 19.3071 60.4905 18.9241C60.9772 18.541 61.5984 18.6151 61.9814 19.1018C62.3644 19.5885 62.3103 20.3066 62.3103 20.3066L64.288 20.1013C64.288 20.1013 64.5603 18.8736 63.5207 17.5526C62.3716 16.0925 60.3837 15.8555 58.9584 16.9773V16.9773Z" fill="#EEEEEE"/>
<path d="M65.5538 28.3374C64.9717 28.549 64.4048 28.2843 64.2234 27.7854C64.0421 27.2865 64.3068 26.7196 64.8888 26.508C65.4709 26.2965 66.0378 26.5611 66.2192 27.06C66.4005 27.559 66.1358 28.1259 65.5538 28.3374ZM66.4 30.6658C68.1047 30.0462 68.9516 28.2322 68.2565 26.3196C67.5613 24.407 65.7473 23.5601 64.0426 24.1797C62.3379 24.7992 61.491 26.6133 62.1861 28.5259C62.8813 30.4384 64.6953 31.2853 66.4 30.6658Z" fill="#EEEEEE"/>
<path d="M12.16 45.5523L11.4066 43.3788L5.55473 45.4072L6.30813 47.5807L8.31447 46.8853L8.7781 48.2228L6.77176 48.9183L7.52516 51.0918L13.377 49.0634L12.6236 46.8899L10.6172 47.5853L10.1536 46.2478L12.16 45.5523Z" fill="#EEEEEE"/>
<path d="M14.9581 56.7502C14.4742 57.1368 13.8525 57.0673 13.5211 56.6526C13.1897 56.2378 13.2592 55.6161 13.7431 55.2295C14.2269 54.8429 14.8487 54.9123 15.18 55.3271C15.5114 55.7418 15.4419 56.3636 14.9581 56.7502ZM16.5045 58.6856C17.9215 57.5534 18.1438 55.5638 16.8736 53.974C15.6033 52.3842 13.6137 52.1618 12.1966 53.294C10.7796 54.4262 10.5573 56.4158 11.8276 58.0057C13.0978 59.5955 15.0875 59.8178 16.5045 58.6856Z" fill="#EEEEEE"/>
<path d="M22.2769 66.3592L24.8996 63.8781L23.2011 66.8818L25.2036 68.0141L28.2521 62.6229L25.4024 61.0115L22.8618 63.4373L23.6311 60.0099L20.7814 58.3985L17.7329 63.7897L19.7354 64.922L21.4338 61.9184L20.6596 65.4446L22.2769 66.3592Z" fill="#EEEEEE"/>
<path d="M32.5028 67.6995L34.7746 68.0607L35.0525 66.3131L32.7806 65.9519L32.8501 65.515L35.2967 65.904L35.5746 64.1564L30.8561 63.4062L29.8836 69.5227L34.7768 70.3008L35.0547 68.5532L32.4333 68.1364L32.5028 67.6995Z" fill="#EEEEEE"/>
<path d="M45.908 67.2514L45.1738 64.8854L45.5118 64.7805C46.1456 64.5838 46.6439 64.8461 46.893 65.6488C47.1421 66.4516 46.8798 66.9499 46.246 67.1465L45.908 67.2514ZM49.259 64.9147C48.6953 63.0979 47.1827 62.2239 44.935 62.9214C43.5829 63.341 42.4261 63.7925 42.4261 63.7925L44.2616 69.7077C44.2616 69.7077 45.4709 69.4251 46.8229 69.0056C49.0707 68.3081 49.8228 66.7315 49.259 64.9147Z" fill="#EEEEEE"/>
<path d="M54.9151 62.671L56.7988 61.3506L55.7831 59.9015L53.8994 61.2219L53.6455 60.8597L55.6741 59.4377L54.6584 57.9887L50.746 60.7311L54.3009 65.8026L58.3582 62.9587L57.3425 61.5097L55.169 63.0332L54.9151 62.671Z" fill="#EEEEEE"/>
<path d="M59.0627 58.1047C60.488 59.2264 62.4759 58.9894 63.625 57.5293C64.6646 56.2083 64.3923 54.9807 64.3923 54.9807L62.4147 54.7754C62.4147 54.7754 62.4687 55.4935 62.0857 55.9802C61.7027 56.4669 61.0815 56.5409 60.5948 56.1579C60.1081 55.7748 60.034 55.1536 60.417 54.6669C60.8001 54.1802 61.5108 54.064 61.5108 54.064L60.8464 52.19C60.8464 52.19 59.5891 52.2139 58.5495 53.5349C57.4004 54.995 57.6373 56.9829 59.0627 58.1046V58.1047Z" fill="#EEEEEE"/>
<path d="M65.6785 46.7078C66.2606 46.9193 66.5252 47.4862 66.3439 47.9851C66.1626 48.4841 65.5957 48.7487 65.0136 48.5372C64.4315 48.3256 64.1668 47.7587 64.3482 47.2598C64.5295 46.7609 65.0964 46.4962 65.6785 46.7078ZM66.5247 44.3794C64.8201 43.7598 63.006 44.6068 62.3109 46.5193C61.6157 48.4319 62.4627 50.2459 64.1673 50.8655C65.872 51.4851 67.6861 50.6382 68.3812 48.7256C69.0763 46.813 68.2294 44.999 66.5247 44.3794Z" fill="#EEEEEE"/>
<path fill-rule="evenodd" clip-rule="evenodd" d="M10.9835 10.9835C7.5236 14.4433 4.84485 18.4165 2.94722 22.903C0.982405 27.5484 0 32.4141 0 37.4999C0 42.5857 0.982405 47.4514 2.94722 52.0969C4.84485 56.5835 7.5236 60.5567 10.9835 64.0164C14.4437 67.4766 18.4169 70.1554 22.9031 72.0528C27.5488 74.0176 32.4144 75 37.4999 75C42.5859 75 47.4516 74.0176 52.0969 72.0528C56.5835 70.155 60.5567 67.4761 64.0164 64.0162C67.4766 60.556 70.1554 56.5829 72.0528 52.0969C74.0176 47.4512 75 42.5855 75 37.4999C75 32.414 74.0176 27.5483 72.0528 22.903C70.155 18.4164 67.4762 14.4432 64.0164 10.9834C60.5565 7.52357 56.5833 4.84482 52.0969 2.9472C47.4516 0.982399 42.5859 0 37.4999 0C32.4141 0 27.5484 0.982399 22.9031 2.9472C18.4166 4.8448 14.4434 7.52356 10.9835 10.9835V10.9835ZM1.1502 37.4999C1.1502 32.5695 2.10232 27.8533 4.00658 23.3511C5.84591 19.0023 8.44264 15.1509 11.7968 11.7968C15.1509 8.44264 19.0024 5.8459 23.3511 4.00655C27.8533 2.10231 32.5695 1.1502 37.4999 1.1502C42.4303 1.1502 47.1465 2.10231 51.6486 4.00655C55.9975 5.84592 59.8489 8.44267 63.2029 11.7968C66.557 15.1507 69.1537 19.0022 70.9932 23.3511C72.8974 27.8532 73.8495 32.5695 73.8495 37.4999C73.8495 42.4301 72.8974 47.1463 70.9932 51.6486C69.1541 55.9971 66.5573 59.8486 63.2029 63.2029C59.8489 66.557 55.9975 69.1537 51.6486 70.9932C47.1467 72.8974 42.4304 73.8495 37.4999 73.8495C32.5698 73.8495 27.8535 72.8974 23.3511 70.9932C19.0027 69.1541 15.1512 66.5573 11.7968 63.2029C8.44262 59.8488 5.84589 55.9973 4.00658 51.6486C2.10232 47.1463 1.1502 42.4301 1.1502 37.4999V37.4999Z" fill="#EEEEEE"/>
</svg>
