<svg width="12" height="18" viewBox="0 0 12 18" fill="none" xmlns="http://www.w3.org/2000/svg">
<path d="M5.55556 17.7778C4.08213 17.7778 2.66905 17.1925 1.62718 16.1506C0.585316 15.1087 0 13.6956 0 12.2222V5.55556C0 4.08213 0.585316 2.66905 1.62718 1.62718C2.66905 0.585316 4.08213 0 5.55556 0C7.02898 0 8.44206 0.585316 9.48393 1.62718C10.5258 2.66905 11.1111 4.08213 11.1111 5.55556V12.2222C11.1111 12.9518 10.9674 13.6742 10.6882 14.3482C10.409 15.0223 9.99981 15.6347 9.48393 16.1506C8.96805 16.6665 8.35561 17.0757 7.68157 17.3549C7.00754 17.6341 6.28512 17.7778 5.55556 17.7778ZM5.55556 1.11111C4.37682 1.11111 3.24635 1.57936 2.41286 2.41286C1.57936 3.24635 1.11111 4.37682 1.11111 5.55556V12.2222C1.11111 13.401 1.57936 14.5314 2.41286 15.3649C3.24635 16.1984 4.37682 16.6667 5.55556 16.6667C6.7343 16.6667 7.86476 16.1984 8.69825 15.3649C9.53175 14.5314 10 13.401 10 12.2222V5.55556C10 4.37682 9.53175 3.24635 8.69825 2.41286C7.86476 1.57936 6.7343 1.11111 5.55556 1.11111Z" fill="#C69D62"/>
<path d="M5.55556 7.22225C5.40821 7.22225 5.2669 7.16372 5.16272 7.05953C5.05853 6.95534 5 6.81404 5 6.66669V4.44447C5 4.29713 5.05853 4.15582 5.16272 4.05163C5.2669 3.94745 5.40821 3.88892 5.55556 3.88892C5.7029 3.88892 5.84421 3.94745 5.94839 4.05163C6.05258 4.15582 6.11111 4.29713 6.11111 4.44447V6.66669C6.11111 6.81404 6.05258 6.95534 5.94839 7.05953C5.84421 7.16372 5.7029 7.22225 5.55556 7.22225Z" fill="#C69D62"/>
</svg>
