<svg width="46" height="57" viewBox="0 0 46 57" fill="none" xmlns="http://www.w3.org/2000/svg">
<path d="M28.4688 0H17.3045C12.7174 0.00738084 8.32016 1.8329 5.07653 5.07653C1.8329 8.32016 0.00738084 12.7174 0 17.3045V39.633C0.00738084 44.2201 1.8329 48.6173 5.07653 51.861C8.32016 55.1046 12.7174 56.9301 17.3045 56.9375H28.4688C33.0559 56.9301 37.4531 55.1046 40.6968 51.861C43.9404 48.6173 45.7659 44.2201 45.7733 39.633V17.3045C45.7659 12.7174 43.9404 8.32016 40.6968 5.07653C37.4531 1.8329 33.0559 0.00738084 28.4688 0V0ZM42.424 39.633C42.424 41.4656 42.0631 43.2803 41.3617 44.9734C40.6604 46.6665 39.6325 48.205 38.3366 49.5008C37.0408 50.7967 35.5023 51.8246 33.8092 52.526C32.1161 53.2273 30.3014 53.5882 28.4688 53.5882H17.3045C13.6034 53.5882 10.0538 52.118 7.43667 49.5008C4.81955 46.8837 3.34926 43.3341 3.34926 39.633V17.3045C3.34926 13.6034 4.81955 10.0538 7.43667 7.43667C10.0538 4.81955 13.6034 3.34926 17.3045 3.34926H28.4688C32.1699 3.34926 35.7195 4.81955 38.3366 7.43667C40.9537 10.0538 42.424 13.6034 42.424 17.3045V39.633ZM24.5613 12.8388V24.0031C24.5613 24.4472 24.3848 24.8732 24.0708 25.1872C23.7567 25.5013 23.3308 25.6777 22.8866 25.6777C22.4425 25.6777 22.0166 25.5013 21.7025 25.1872C21.3884 24.8732 21.212 24.4472 21.212 24.0031V12.8388C21.212 12.3947 21.3884 11.9688 21.7025 11.6547C22.0166 11.3407 22.4425 11.1642 22.8866 11.1642C23.3308 11.1642 23.7567 11.3407 24.0708 11.6547C24.3848 11.9688 24.5613 12.3947 24.5613 12.8388Z" fill="#C69D62"/>
</svg>
